<?xml version="1.0" encoding="utf-8"?>
<!-- Generator: Adobe Illustrator 27.9.0, SVG Export Plug-In . SVG Version: 6.00 Build 0)  -->
<svg xmlns:xlink="http://www.w3.org/1999/xlink" version="1.1" id="Layer_1" xmlns="http://www.w3.org/2000/svg" x="0px" y="0px"
	 viewBox="0 0 25 24" style="enable-background:new 0 0 25 24;" xml:space="preserve">
<style type="text/css">
	.st0{fill-rule:evenodd;clip-rule:evenodd;fill:currentColor;}
</style>
<path class="st0" d="M21.5,20.6c0.7-1.1,1-1.6,1.5-2.8c-4-1.5-4.6-7.2-0.7-9.4C21.1,6.9,19.4,6,17.8,6c-1.2,0-1.9,0.3-2.7,0.6
	C14.6,6.8,14,7,13.4,7c-0.7,0-1.4-0.2-2-0.5C10.6,6.3,9.8,6,8.9,6C7.1,6,5.2,7.1,4,9c-1.7,2.6-1.4,7.6,1.3,11.8c1,1.5,2.3,3.2,4,3.2
	c0.7,0,1.2-0.2,1.7-0.4c0.6-0.3,1.2-0.6,2.3-0.6c1.1,0,1.7,0.3,2.3,0.6c0.5,0.2,1,0.4,1.7,0.4C19.1,24,20.5,22.1,21.5,20.6z"/>
<path class="st0" d="M17.6,0c0.2,1.3-0.3,2.6-1.1,3.5c-0.8,1-2.1,1.8-3.3,1.7c-0.2-1.3,0.4-2.6,1.1-3.5C15.1,0.8,16.4,0.1,17.6,0z"
	/>
</svg>
