<?xml version="1.0" encoding="utf-8"?>
<!-- Generator: Adobe Illustrator 27.9.0, SVG Export Plug-In . SVG Version: 6.00 Build 0)  -->
<svg xmlns:xlink="http://www.w3.org/1999/xlink" version="1.1" id="Layer_1" xmlns="http://www.w3.org/2000/svg" x="0px" y="0px"
	 viewBox="0 0 25 24" style="enable-background:new 0 0 25 24;" xml:space="preserve">
<style type="text/css">
	.st0{clip-path:url(#SVGID_00000127041784585940540820000012123965678438921400_);}
	.st1{fill:currentColor;}
</style>
<g>
	<defs>
		<rect id="SVGID_1_" x="0.8" y="0" width="24" height="24"/>
	</defs>
	<clipPath id="SVGID_00000110449608617291363370000003799994532042825914_">
		<use xlink:href="#SVGID_1_"  style="overflow:visible;"/>
	</clipPath>
	<g style="clip-path:url(#SVGID_00000110449608617291363370000003799994532042825914_);">
		<path class="st1" d="M24.8,2.1c0-0.2-0.1-0.4-0.3-0.6c-0.2-0.2-0.4-0.3-0.6-0.3c-4.7,0-9.6,5.3-12.3,8.9c-1-0.3-2-0.4-3-0.2
			c-1,0.2-1.9,0.6-2.7,1.2c-0.8,0.6-1.5,1.4-1.9,2.3c-0.5,0.9-0.7,1.9-0.7,2.9c0,3.3-2.1,4.8-2.2,4.9c-0.2,0.1-0.3,0.3-0.3,0.4
			c-0.1,0.2-0.1,0.4,0,0.5c0.1,0.2,0.2,0.3,0.3,0.4c0.1,0.1,0.3,0.2,0.5,0.2h8.1c1,0,2-0.2,2.9-0.7c0.9-0.5,1.7-1.1,2.3-1.9
			c0.6-0.8,1-1.7,1.2-2.7c0.2-1,0.1-2-0.2-3C19.5,11.7,24.8,6.9,24.8,2.1z M9.8,21H3.7c0.7-1,1.4-2.6,1.4-4.7c0-0.9,0.3-1.8,0.8-2.6
			c0.5-0.8,1.3-1.4,2.1-1.7c0.9-0.4,1.8-0.5,2.7-0.3c0.9,0.2,1.8,0.6,2.4,1.3c0.7,0.7,1.1,1.5,1.3,2.4c0.2,0.9,0.1,1.9-0.3,2.7
			c-0.4,0.9-1,1.6-1.7,2.1C11.6,20.7,10.7,21,9.8,21z M13.3,10.9c0.4-0.5,0.7-0.9,1.1-1.3c0.9,0.6,1.6,1.3,2.2,2.2
			c-0.4,0.4-0.9,0.7-1.3,1.1C14.7,12,14,11.4,13.3,10.9z M17.8,10.6c-0.6-0.9-1.4-1.7-2.4-2.4c3.4-3.7,6-4.8,7.5-5.1
			C22.7,4.6,21.5,7.2,17.8,10.6z"/>
	</g>
</g>
</svg>
