<?xml version="1.0" encoding="utf-8"?>
<!-- Generator: Adobe Illustrator 27.9.0, SVG Export Plug-In . SVG Version: 6.00 Build 0)  -->
<svg xmlns:xlink="http://www.w3.org/1999/xlink" version="1.1" id="Layer_1" xmlns="http://www.w3.org/2000/svg" x="0px" y="0px"
	 viewBox="0 0 25 24" style="enable-background:new 0 0 25 24;" xml:space="preserve">
<style type="text/css">
	.st0{clip-path:url(#SVGID_00000093890605897441979870000001894434200559443614_);}
	.st1{fill:currentColor;}
</style>
<g>
	<defs>
		<rect id="SVGID_1_" x="1" y="0" width="24" height="24"/>
	</defs>
	<clipPath id="SVGID_00000157276601478737193720000015120813138006612869_">
		<use xlink:href="#SVGID_1_"  style="overflow:visible;"/>
	</clipPath>
	<g style="clip-path:url(#SVGID_00000157276601478737193720000015120813138006612869_);">
		<path class="st1" d="M1,0.8C1,0.6,1,0.4,1.2,0.2C1.3,0.1,1.5,0,1.8,0h2.4c0.2,0,0.4,0.1,0.5,0.2c0.1,0.1,0.2,0.3,0.3,0.4l0.6,2.6
			h18.6c0.1,0,0.2,0,0.3,0.1c0.1,0.1,0.2,0.1,0.3,0.2c0.1,0.1,0.1,0.2,0.2,0.3c0,0.1,0,0.2,0,0.3l-2.4,12.8c0,0.2-0.1,0.3-0.3,0.5
			c-0.1,0.1-0.3,0.2-0.5,0.2H7.4c-0.2,0-0.4-0.1-0.5-0.2c-0.1-0.1-0.2-0.3-0.3-0.5L4.2,4.2L3.5,1.6H1.8c-0.2,0-0.4-0.1-0.6-0.2
			C1,1.2,1,1,1,0.8z M5.9,4.8L8,16h13.1l2.1-11.2H5.9z M9,17.6c-0.8,0-1.7,0.3-2.3,0.9c-0.6,0.6-0.9,1.4-0.9,2.3
			c0,0.8,0.3,1.7,0.9,2.3C7.3,23.7,8.1,24,9,24c0.8,0,1.7-0.3,2.3-0.9c0.6-0.6,0.9-1.4,0.9-2.3c0-0.8-0.3-1.7-0.9-2.3
			C10.6,17.9,9.8,17.6,9,17.6z M20.2,17.6c-0.8,0-1.7,0.3-2.3,0.9C17.3,19.1,17,20,17,20.8c0,0.8,0.3,1.7,0.9,2.3
			c0.6,0.6,1.4,0.9,2.3,0.9s1.7-0.3,2.3-0.9c0.6-0.6,0.9-1.4,0.9-2.3c0-0.8-0.3-1.7-0.9-2.3C21.8,17.9,21,17.6,20.2,17.6z M9,19.2
			c0.4,0,0.8,0.2,1.1,0.5c0.3,0.3,0.5,0.7,0.5,1.1c0,0.4-0.2,0.8-0.5,1.1c-0.3,0.3-0.7,0.5-1.1,0.5c-0.4,0-0.8-0.2-1.1-0.5
			c-0.3-0.3-0.5-0.7-0.5-1.1c0-0.4,0.2-0.8,0.5-1.1C8.1,19.4,8.5,19.2,9,19.2z M20.2,19.2c0.4,0,0.8,0.2,1.1,0.5
			c0.3,0.3,0.5,0.7,0.5,1.1c0,0.4-0.2,0.8-0.5,1.1c-0.3,0.3-0.7,0.5-1.1,0.5c-0.4,0-0.8-0.2-1.1-0.5c-0.3-0.3-0.5-0.7-0.5-1.1
			c0-0.4,0.2-0.8,0.5-1.1C19.3,19.4,19.7,19.2,20.2,19.2z"/>
	</g>
</g>
</svg>
