<svg viewBox="0 0 24 24" xml:space="preserve">
<path d="M1.4,3.5c-0.5,0-0.9,0.4-0.9,0.9c0,0.5,0.4,0.9,0.9,0.9h2l2.4,9.4c0.2,0.8,0.9,1.4,1.7,1.4h11.2
	c0.8,0,1.5-0.5,1.7-1.3l2.3-8.6h-1.9l-2.2,8.1H7.5L5.2,4.8c-0.1-0.4-0.3-0.7-0.6-1C4.2,3.6,3.8,3.5,3.4,3.5H1.4z M18.5,16.2
	c-2.1-0.7-4.2,1.3-3.4,3.4c0.3,0.8,0.9,1.4,1.7,1.7c2.1,0.7,4.2-1.3,3.4-3.4C19.9,17.1,19.3,16.5,18.5,16.2z M10.4,16.2
	c-2.1-0.7-4.2,1.3-3.4,3.4c0.3,0.8,0.9,1.4,1.7,1.7c2.1,0.7,4.2-1.3,3.4-3.4C11.8,17.1,11.2,16.5,10.4,16.2z M12.2,6.2H9.5V8h2.7H14
	h2.7V6.2H14H12.2z M9.5,17.9c0.5,0,0.9,0.4,0.9,0.9c0,0.5-0.4,0.9-0.9,0.9c-0.5,0-0.9-0.4-0.9-0.9C8.6,18.3,9,17.9,9.5,17.9z
	 M17.6,17.9c0.5,0,0.9,0.4,0.9,0.9c0,0.5-0.4,0.9-0.9,0.9c-0.5,0-0.9-0.4-0.9-0.9C16.7,18.3,17.1,17.9,17.6,17.9z"/>
</svg>
