
<svg viewBox="0 0 24 24">
<path d="M1.3,3.4c-0.5,0-0.9,0.4-0.9,0.9c0,0.5,0.4,0.9,0.9,0.9h2l2.4,9.4C5.9,15.4,6.6,16,7.4,16h11.2
	c0.8,0,1.5-0.5,1.7-1.3l2.3-8.6h-1.9l-2.2,8.1H7.4L5.1,4.7C5,4.3,4.8,4,4.4,3.7C4.1,3.5,3.7,3.4,3.3,3.4H1.3z M17.5,16
	c-1.5,0-2.7,1.2-2.7,2.7c0,1.5,1.2,2.7,2.7,2.7c1.5,0,2.7-1.2,2.7-2.7C20.2,17.2,19,16,17.5,16z M9.4,16c-1.5,0-2.7,1.2-2.7,2.7
	c0,1.5,1.2,2.7,2.7,2.7c1.5,0,2.7-1.2,2.7-2.7C12.1,17.2,10.9,16,9.4,16z M9.4,17.8c0.5,0,0.9,0.4,0.9,0.9c0,0.5-0.4,0.9-0.9,0.9
	c-0.5,0-0.9-0.4-0.9-0.9C8.5,18.2,8.9,17.8,9.4,17.8z M17.5,17.8c0.5,0,0.9,0.4,0.9,0.9c0,0.5-0.4,0.9-0.9,0.9
	c-0.5,0-0.9-0.4-0.9-0.9C16.6,18.2,17,17.8,17.5,17.8z"/>
</svg>
