<svg viewBox="0 0 24 24">
<path d="M1.4,3.5c-0.5,0-0.9,0.4-0.9,0.9c0,0.5,0.4,0.9,0.9,0.9h2l2.4,9.4c0.2,0.8,0.9,1.4,1.7,1.4h11.2
	c0.8,0,1.5-0.5,1.7-1.3l2.3-8.6h-1.9l-2.2,8.1H7.5L5.2,4.8c-0.1-0.4-0.3-0.7-0.6-1C4.2,3.6,3.8,3.5,3.4,3.5H1.4z M17.6,16.1
	c-1.5,0-2.7,1.2-2.7,2.7c0,1.5,1.2,2.7,2.7,2.7c1.5,0,2.7-1.2,2.7-2.7C20.3,17.3,19.1,16.1,17.6,16.1z M9.5,16.1
	c-1.5,0-2.7,1.2-2.7,2.7c0,1.5,1.2,2.7,2.7,2.7c1.5,0,2.7-1.2,2.7-2.7C12.2,17.3,11,16.1,9.5,16.1z M12.2,3.5v2.7H9.5V8h2.7v2.7H14
	V8h2.7V6.2H14V3.5H12.2z M9.5,17.9c0.5,0,0.9,0.4,0.9,0.9c0,0.5-0.4,0.9-0.9,0.9c-0.5,0-0.9-0.4-0.9-0.9C8.6,18.3,9,17.9,9.5,17.9z
	 M17.6,17.9c0.5,0,0.9,0.4,0.9,0.9c0,0.5-0.4,0.9-0.9,0.9c-0.5,0-0.9-0.4-0.9-0.9C16.7,18.3,17.1,17.9,17.6,17.9z"/>
</svg>
