<?xml version="1.0" encoding="utf-8"?>
<!-- Generator: Adobe Illustrator 27.9.0, SVG Export Plug-In . SVG Version: 6.00 Build 0)  -->
<svg xmlns:xlink="http://www.w3.org/1999/xlink" version="1.1" id="Layer_1" xmlns="http://www.w3.org/2000/svg" x="0px" y="0px"
	 viewBox="0 0 25 24" style="enable-background:new 0 0 25 24;" xml:space="preserve">
<style type="text/css">
	.st0{fill:currentColor;}
</style>
<path class="st0" d="M5.8,7.8C5.7,7.9,5.6,8.1,5.5,8.2C5.5,8.3,5.5,8.5,5.5,8.6c0,0.1,0,0.3,0.1,0.4c0.1,0.1,0.1,0.3,0.2,0.4
	l6.4,6.4c0.1,0.1,0.2,0.2,0.4,0.2c0.1,0.1,0.3,0.1,0.4,0.1c0.1,0,0.3,0,0.4-0.1c0.1-0.1,0.3-0.1,0.4-0.2l6.4-6.4
	c0.1-0.1,0.2-0.2,0.2-0.4c0.1-0.1,0.1-0.3,0.1-0.4c0-0.1,0-0.3-0.1-0.4c-0.1-0.1-0.1-0.3-0.2-0.4c-0.1-0.1-0.2-0.2-0.4-0.2
	c-0.1-0.1-0.3-0.1-0.4-0.1c-0.1,0-0.3,0-0.4,0.1c-0.1,0.1-0.3,0.1-0.4,0.2L13,13.4L7.4,7.8C7.3,7.7,7.1,7.6,7,7.6
	C6.9,7.5,6.7,7.5,6.6,7.5c-0.1,0-0.3,0-0.4,0.1C6,7.6,5.9,7.7,5.8,7.8z"/>
</svg>
