<?xml version="1.0" encoding="utf-8"?>
<!-- Generator: Adobe Illustrator 27.9.0, SVG Export Plug-In . SVG Version: 6.00 Build 0)  -->
<svg xmlns:xlink="http://www.w3.org/1999/xlink" version="1.1" id="Layer_1" xmlns="http://www.w3.org/2000/svg" x="0px" y="0px"
	 viewBox="0 0 25 24" style="enable-background:new 0 0 25 24;" xml:space="preserve">
<style type="text/css">
	.st0{clip-path:url(#SVGID_00000134230290985896271510000014554296080281209255_);}
	.st1{fill:none;stroke:currentColor;stroke-width:2;stroke-linecap:round;stroke-linejoin:round;}
</style>
<g>
	<defs>
		<rect id="SVGID_1_" x="0.8" y="0" width="24" height="24"/>
	</defs>
	<clipPath id="SVGID_00000070117734068850708550000011805882161410615477_">
		<use xlink:href="#SVGID_1_"  style="overflow:visible;"/>
	</clipPath>
	<g style="clip-path:url(#SVGID_00000070117734068850708550000011805882161410615477_);">
		<path class="st1" d="M11.7,0.9H9.5c-5.5,0-7.8,2.2-7.8,7.8v6.6c0,5.5,2.2,7.8,7.8,7.8h6.6c5.5,0,7.8-2.2,7.8-7.8v-2.2"/>
		<path class="st1" d="M23.8,2.7c-1.4,3.4-4.8,8-7.6,10.3l-1.8,1.4c-0.2,0.2-0.4,0.3-0.7,0.4c0-0.2,0-0.3,0-0.5
			c-0.1-0.7-0.4-1.4-1-2c-0.6-0.6-1.3-1-2.1-1.1c-0.2,0-0.4,0-0.5,0c0.1-0.3,0.2-0.5,0.4-0.7l1.4-1.8c2.3-2.9,6.9-6.3,10.3-7.7
			c0.5-0.2,1,0,1.4,0.3C23.8,1.6,24,2.1,23.8,2.7z"/>
		<path class="st1" d="M13.7,14.8c0,1-0.4,1.9-1.1,2.6c-0.5,0.5-1.3,0.9-2.1,1l-2.2,0.2c-1.2,0.1-2.2-0.9-2.1-2.1l0.2-2.2
			c0.2-1.9,1.8-3.2,3.6-3.2c0.2,0,0.4,0,0.5,0c0.8,0.1,1.5,0.4,2.1,1.1c0.6,0.6,0.9,1.3,1,2C13.7,14.4,13.7,14.6,13.7,14.8z"/>
		<path class="st1" d="M17.1,12c0-2.3-1.9-4.2-4.2-4.2"/>
	</g>
</g>
</svg>
