<?xml version="1.0" encoding="utf-8"?>
<!-- Generator: Adobe Illustrator 27.9.0, SVG Export Plug-In . SVG Version: 6.00 Build 0)  -->
<svg xmlns:xlink="http://www.w3.org/1999/xlink" version="1.1" id="Layer_1" xmlns="http://www.w3.org/2000/svg" x="0px" y="0px"
	 viewBox="0 0 25 24" style="enable-background:new 0 0 25 24;" xml:space="preserve">
<style type="text/css">
	.st0{clip-path:url(#SVGID_00000167383989142374820930000010340500284449917328_);}
	.st1{fill:currentColor;}
</style>
<g>
	<defs>
		<rect id="SVGID_1_" x="1" y="0" width="24" height="24"/>
	</defs>
	<clipPath id="SVGID_00000000201699347212861520000002985087177981108887_">
		<use xlink:href="#SVGID_1_"  style="overflow:visible;"/>
	</clipPath>
	<g style="clip-path:url(#SVGID_00000000201699347212861520000002985087177981108887_);">
		<path class="st1" d="M20.5,0.6l3.6,3.6l-2.8,2.8l-3.6-3.6L20.5,0.6z M7.3,17.4h3.6l8.8-8.8L16,5l-8.8,8.8V17.4z"/>
		<path class="st1" d="M20.2,21H7.2c0,0-0.1,0-0.1,0c0,0-0.1,0-0.1,0H3.4V4.2h8.2L14,1.8H3.4C2,1.8,1,2.8,1,4.2V21
			c0,1.3,1.1,2.4,2.4,2.4h16.9c0.6,0,1.3-0.3,1.7-0.7s0.7-1.1,0.7-1.7V10.6L20.2,13V21z"/>
	</g>
</g>
</svg>
