<?xml version="1.0" encoding="utf-8"?>
<!-- Generator: Adobe Illustrator 27.9.0, SVG Export Plug-In . SVG Version: 6.00 Build 0)  -->
<svg xmlns:xlink="http://www.w3.org/1999/xlink" version="1.1" id="Layer_1" xmlns="http://www.w3.org/2000/svg" x="0px" y="0px"
	 viewBox="0 0 25 24" style="enable-background:new 0 0 25 24;" xml:space="preserve">
<style type="text/css">
	.st0{fill:none;stroke:currentColor;stroke-width:2;stroke-linecap:round;stroke-linejoin:round;}
</style>
<path class="st0" d="M15,2H7c-0.5,0-1,0.2-1.4,0.6C5.2,3,5,3.5,5,4v16c0,0.5,0.2,1,0.6,1.4C5.9,21.8,6.4,22,7,22h12
	c0.5,0,1-0.2,1.4-0.6C20.7,21,21,20.5,21,20V8L15,2z"/>
<path class="st0" d="M15,2v6h6"/>
<path class="st0" d="M17,13H9"/>
<path class="st0" d="M17,17H9"/>
<path class="st0" d="M11,9h-1H9"/>
</svg>
