<?xml version="1.0" encoding="utf-8"?>
<!-- Generator: Adobe Illustrator 27.9.0, SVG Export Plug-In . SVG Version: 6.00 Build 0)  -->
<svg version="1.1" id="Layer_1" xmlns="http://www.w3.org/2000/svg" xmlns:xlink="http://www.w3.org/1999/xlink" x="0px" y="0px"
	 viewBox="0 0 24 24" style="enable-background:new 0 0 24 24;" xml:space="preserve">
<style type="text/css">
	.st0{clip-path:url(#SVGID_00000157298882451073432390000006063158674201090954_);}
	.st1{fill:#4280EF;}
	.st2{fill:#34A353;}
	.st3{fill:#F6B704;}
	.st4{fill:#E54335;}
</style>
<g>
	<defs>
		<rect id="SVGID_1_" y="0" width="24" height="24"/>
	</defs>
	<clipPath id="SVGID_00000163765556054442624730000010956633323134728364_">
		<use xlink:href="#SVGID_1_"  style="overflow:visible;"/>
	</clipPath>
	<g style="clip-path:url(#SVGID_00000163765556054442624730000010956633323134728364_);">
		<path class="st1" d="M23.8,12.3c0-0.8-0.1-1.6-0.2-2.4H12.2v4.6h6.5c-0.3,1.5-1.1,2.8-2.4,3.6l3.9,3C22.5,19,23.8,15.9,23.8,12.3z
			"/>
		<path class="st2" d="M12.2,24c3.2,0,6-1.1,7.9-2.9l-3.9-3c-1.1,0.7-2.5,1.2-4.1,1.2c-3.1,0-5.8-2.1-6.7-4.9l-4,3.1
			C3.6,21.4,7.7,24,12.2,24z"/>
		<path class="st3" d="M5.5,14.3C5,12.8,5,11.2,5.5,9.7l-4-3.1c-1.7,3.4-1.7,7.4,0,10.8L5.5,14.3z"/>
		<path class="st4" d="M12.2,4.8c1.7,0,3.4,0.6,4.6,1.8l3.4-3.5c-2.2-2-5-3.1-8-3.1C7.7,0,3.6,2.6,1.5,6.6l4,3.1
			C6.5,6.8,9.1,4.8,12.2,4.8z"/>
	</g>
</g>
</svg>
