<?xml version="1.0" encoding="utf-8"?>
<!-- Generator: Adobe Illustrator 27.9.0, SVG Export Plug-In . SVG Version: 6.00 Build 0)  -->
<svg xmlns:xlink="http://www.w3.org/1999/xlink" version="1.1" id="Layer_1" xmlns="http://www.w3.org/2000/svg" x="0px" y="0px"
	 viewBox="0 0 25 24" style="enable-background:new 0 0 25 24;" xml:space="preserve">
<style type="text/css">
	.st0{clip-path:url(#SVGID_00000134943642895654825600000004549467973406038975_);}
	.st1{fill-rule:evenodd;clip-rule:evenodd;fill:currentColor;}
</style>
<g>
	<defs>
		<rect id="SVGID_1_" x="1" y="0" width="24" height="24"/>
	</defs>
	<clipPath id="SVGID_00000150101114354196370640000006872293430064049581_">
		<use xlink:href="#SVGID_1_"  style="overflow:visible;"/>
	</clipPath>
	<g style="clip-path:url(#SVGID_00000150101114354196370640000006872293430064049581_);">
		<path class="st1" d="M25,12c0-0.4-0.1-0.7-0.3-1c-0.2-0.3-0.5-0.4-0.8-0.4H2.1c-0.3,0-0.6,0.1-0.8,0.4C1.1,11.3,1,11.6,1,12
			s0.1,0.7,0.3,1c0.2,0.3,0.5,0.4,0.8,0.4h21.7c0.3,0,0.6-0.1,0.8-0.4C24.8,12.7,25,12.4,25,12z M25,2.8c0-0.4-0.1-0.7-0.3-1
			c-0.2-0.3-0.5-0.4-0.8-0.4H2.1c-0.3,0-0.6,0.1-0.8,0.4C1.1,2.1,1,2.5,1,2.8c0,0.4,0.1,0.7,0.3,1C1.5,4,1.8,4.2,2.1,4.2h21.7
			c0.3,0,0.6-0.1,0.8-0.4C24.8,3.5,25,3.2,25,2.8z M25,21.2c0-0.4-0.1-0.7-0.3-1c-0.2-0.3-0.5-0.4-0.8-0.4H2.1
			c-0.3,0-0.6,0.1-0.8,0.4c-0.2,0.3-0.3,0.6-0.3,1s0.1,0.7,0.3,1c0.2,0.3,0.5,0.4,0.8,0.4h21.7c0.3,0,0.6-0.1,0.8-0.4
			C24.8,21.9,25,21.5,25,21.2z"/>
	</g>
</g>
</svg>
