<?xml version="1.0" encoding="utf-8"?>
<!-- Generator: Adobe Illustrator 27.9.0, SVG Export Plug-In . SVG Version: 6.00 Build 0)  -->
<svg xmlns:xlink="http://www.w3.org/1999/xlink" version="1.1" id="Layer_1" xmlns="http://www.w3.org/2000/svg" x="0px" y="0px"
	 viewBox="0 0 25 24" style="enable-background:new 0 0 25 24;" xml:space="preserve">
<style type="text/css">
	.st0{fill:currentColor;stroke:currentColor;stroke-width:2;stroke-linecap:round;stroke-linejoin:round;}
</style>
<path class="st0" d="M21.3,4.6c-0.5-0.5-1.1-0.9-1.7-1.2c-0.6-0.3-1.3-0.4-2-0.4c-0.7,0-1.4,0.1-2,0.4c-0.6,0.3-1.2,0.7-1.7,1.2
	l-1,1l-1-1c-1-1-2.3-1.6-3.7-1.6C6.7,3,5.3,3.6,4.3,4.6c-1,1-1.5,2.4-1.5,3.8s0.6,2.8,1.5,3.8l1,1l7.4,7.7l7.4-7.7l1-1
	c0.5-0.5,0.9-1.1,1.1-1.8c0.3-0.7,0.4-1.4,0.4-2.1S22.7,7,22.4,6.4C22.1,5.7,21.7,5.1,21.3,4.6z"/>
</svg>
