<?xml version="1.0" encoding="utf-8"?>
<!-- Generator: Adobe Illustrator 27.9.0, SVG Export Plug-In . SVG Version: 6.00 Build 0)  -->
<svg xmlns:xlink="http://www.w3.org/1999/xlink" version="1.1" id="Layer_1" xmlns="http://www.w3.org/2000/svg" x="0px" y="0px"
	 viewBox="0 0 25 24" style="enable-background:new 0 0 25 24;" xml:space="preserve">
<style type="text/css">
	.st0{clip-path:url(#SVGID_00000049197923121743083570000013987308944094287495_);}
	.st1{fill:none;stroke:currentColor;stroke-width:2;stroke-linecap:round;stroke-linejoin:round;}
</style>
<g>
	<defs>
		<rect id="SVGID_1_" x="0.8" y="0" width="24" height="24"/>
	</defs>
	<clipPath id="SVGID_00000094607330154185802290000009207598471934840457_">
		<use xlink:href="#SVGID_1_"  style="overflow:visible;"/>
	</clipPath>
	<g style="clip-path:url(#SVGID_00000094607330154185802290000009207598471934840457_);">
		<path class="st1" d="M21.6,4.6c-0.5-0.5-1.1-0.9-1.8-1.2S18.5,3,17.8,3c-0.7,0-1.4,0.1-2.1,0.4c-0.7,0.3-1.3,0.7-1.8,1.2l-1.1,1.1
			l-1.1-1.1c-1-1-2.4-1.6-3.9-1.6C6.4,3,5,3.6,4,4.6c-1,1-1.6,2.4-1.6,3.9c0,1.5,0.6,2.9,1.6,3.9L5,13.4l7.8,7.8l7.8-7.8l1.1-1.1
			c0.5-0.5,0.9-1.1,1.2-1.8c0.3-0.7,0.4-1.4,0.4-2.1c0-0.7-0.1-1.4-0.4-2.1C22.6,5.7,22.2,5.1,21.6,4.6z"/>
	</g>
</g>
</svg>
