<?xml version="1.0" encoding="utf-8"?>
<!-- Generator: Adobe Illustrator 27.9.0, SVG Export Plug-In . SVG Version: 6.00 Build 0)  -->
<svg xmlns:xlink="http://www.w3.org/1999/xlink" version="1.1" id="Layer_1" xmlns="http://www.w3.org/2000/svg" x="0px" y="0px"
	 viewBox="0 0 25 24" style="enable-background:new 0 0 25 24;" xml:space="preserve">
<style type="text/css">
	.st0{fill:none;stroke:currentColor;stroke-width:2;stroke-linecap:round;stroke-linejoin:round;}
</style>
<path class="st0" d="M19.8,11h-14c-1.1,0-2,0.9-2,2v7c0,1.1,0.9,2,2,2h14c1.1,0,2-0.9,2-2v-7C21.8,11.9,20.9,11,19.8,11z"/>
<path class="st0" d="M7.8,11V7c0-1.3,0.5-2.6,1.5-3.5C10.2,2.5,11.5,2,12.8,2c1.3,0,2.6,0.5,3.5,1.5c0.9,0.9,1.5,2.2,1.5,3.5v4"/>
</svg>
