<?xml version="1.0" encoding="utf-8"?>
<!-- Generator: Adobe Illustrator 27.9.0, SVG Export Plug-In . SVG Version: 6.00 Build 0)  -->
<svg xmlns:xlink="http://www.w3.org/1999/xlink" version="1.1" id="Layer_1" xmlns="http://www.w3.org/2000/svg" x="0px" y="0px"
	 viewBox="0 0 24 24" style="enable-background:new 0 0 24 24;" xml:space="preserve">
<style type="text/css">
	.st0{fill:currentColor;}
</style>
<path class="st0" d="M4.8,15.8c-0.1-0.1-0.2-0.2-0.2-0.4S4.5,15.1,4.5,15s0-0.3,0.1-0.4s0.1-0.3,0.2-0.4l6.4-6.4
	c0.1-0.1,0.2-0.2,0.4-0.2s0.3-0.1,0.4-0.1s0.3,0,0.4,0.1s0.3,0.1,0.4,0.2l6.4,6.4c0.1,0.1,0.2,0.2,0.2,0.4c0.1,0.1,0.1,0.3,0.1,0.4
	s0,0.3-0.1,0.4c-0.1,0.1-0.1,0.3-0.2,0.4S18.9,16,18.8,16c-0.1,0.1-0.3,0.1-0.4,0.1s-0.3,0-0.4-0.1c-0.1-0.1-0.3-0.1-0.4-0.2
	L12,10.2l-5.6,5.6C6.3,15.9,6.2,16,6.1,16c-0.1,0.1-0.3,0.1-0.4,0.1c-0.1,0-0.3,0-0.4-0.1C5.1,16,4.9,15.9,4.8,15.8z"/>
</svg>
