<?xml version="1.0" encoding="utf-8"?>
<!-- Generator: Adobe Illustrator 27.9.0, SVG Export Plug-In . SVG Version: 6.00 Build 0)  -->
<svg xmlns:xlink="http://www.w3.org/1999/xlink" version="1.1" id="Layer_1" xmlns="http://www.w3.org/2000/svg" x="0px" y="0px"
	 viewBox="0 0 25 24" style="enable-background:new 0 0 25 24;" xml:space="preserve">
<style type="text/css">
	.st0{fill:currentColor;}
</style>
<path class="st0" d="M22.6,10.6h-2V3.8c0-2.1-1.7-3.8-3.8-3.8H9.2C7.1,0,5.4,1.7,5.4,3.8v6.7h-2c-0.5,0-1,0.4-1,1V23
	c0,0.5,0.4,1,1,1h19.2c0.5,0,1-0.4,1-1V11.5C23.5,11,23.1,10.6,22.6,10.6z M7.6,3.8c0-0.9,0.8-1.7,1.7-1.7h7.4
	c0.9,0,1.7,0.8,1.7,1.7v6.7H7.6V3.8z M21.4,21.8H4.6v-9.1h16.8V21.8z M12.1,17.7v1.6c0,0.1,0.1,0.2,0.2,0.2h1.2
	c0.1,0,0.2-0.1,0.2-0.2v-1.6c0.2-0.2,0.4-0.4,0.5-0.7c0.1-0.3,0.1-0.6,0-0.9c-0.1-0.3-0.3-0.5-0.5-0.7c-0.2-0.2-0.5-0.3-0.8-0.3
	s-0.6,0.1-0.8,0.3c-0.2,0.2-0.4,0.4-0.5,0.7c-0.1,0.3-0.1,0.6,0,0.9C11.7,17.2,11.9,17.5,12.1,17.7z"/>
</svg>
