<?xml version="1.0" encoding="utf-8"?>
<!-- Generator: Adobe Illustrator 27.9.0, SVG Export Plug-In . SVG Version: 6.00 Build 0)  -->
<svg xmlns:xlink="http://www.w3.org/1999/xlink" version="1.1" id="Layer_1" xmlns="http://www.w3.org/2000/svg" x="0px" y="0px"
	 viewBox="0 0 25 24" style="enable-background:new 0 0 25 24;" xml:space="preserve">
<style type="text/css">
	.st0{clip-path:url(#SVGID_00000015356690876420140680000017772067118235510144_);}
	.st1{fill:currentColor;}
</style>
<g>
	<defs>
		<rect id="SVGID_1_" x="0.5" y="-2.4" width="24" height="24"/>
	</defs>
	<clipPath id="SVGID_00000082352394679024975820000018239855460012924082_">
		<use xlink:href="#SVGID_1_"  style="overflow:visible;"/>
	</clipPath>
	<g style="clip-path:url(#SVGID_00000082352394679024975820000018239855460012924082_);">
		<path class="st1" d="M9.2,3.2H1.5C1.2,3.2,1,3.3,0.8,3.4C0.6,3.6,0.5,3.8,0.5,4.1v16.6c0,0.2,0.1,0.5,0.3,0.7
			c0.2,0.2,0.4,0.3,0.7,0.3h22.1c0.2,0,0.5-0.1,0.7-0.3c0.2-0.2,0.3-0.4,0.3-0.7V4.1c0-0.2-0.1-0.5-0.3-0.7
			c-0.2-0.2-0.4-0.3-0.7-0.3h-3.9h-3.9 M15.8,3.2H9.2 M22.6,19.7H2.4V5h20.2V19.7z M7.9,10.5c-0.5,0-1-0.2-1.3-0.5
			C6.3,9.6,6.1,9.2,6.1,8.7c0-0.5,0.2-1,0.5-1.3C6.9,7,7.4,6.8,7.9,6.8c0.5,0,1,0.2,1.3,0.5c0.3,0.3,0.5,0.8,0.5,1.3
			c0,0.5-0.2,1-0.5,1.3C8.9,10.3,8.4,10.5,7.9,10.5z M20.8,17.9H7l2.8-5.5L12,17l4.1-8.3L20.8,17.9z"/>
	</g>
</g>
</svg>
