<?xml version="1.0" encoding="utf-8"?>
<!-- Generator: Adobe Illustrator 27.9.0, SVG Export Plug-In . SVG Version: 6.00 Build 0)  -->
<svg version="1.1" id="Layer_1" xmlns="http://www.w3.org/2000/svg" xmlns:xlink="http://www.w3.org/1999/xlink" x="0px" y="0px"
	 viewBox="0 0 24 24" style="enable-background:new 0 0 24 24;" xml:space="preserve">
<style type="text/css">
	.st0{fill:#27346A;stroke:#FFFFFF;}
	.st1{fill:#27346A;}
	.st2{fill:#2790C3;}
	.st3{fill:#1F264F;}
</style>
<path class="st0" d="M19.8,2.1L19.8,2.1c0.5,0.5,0.7,1,0.9,1.7c0.1,0.6,0.1,1.3,0,2.2l0.4,0.1l0,0L20.7,6c0,0.1,0,0.3-0.1,0.4l0,0
	c-0.5,2.4-1.5,4-2.9,5c-1.4,1-3.2,1.4-5.3,1.4h-2.2c-0.7,0-1.3,0.5-1.5,1.1l0,0l0,0l-1.1,6.9H3.6c-0.1,0-0.1-0.1-0.1-0.2l0,0L6.6,1
	c0,0,0,0,0,0c0-0.1,0.1-0.3,0.2-0.3C6.8,0.5,7,0.5,7.1,0.5c0,0,0,0,0,0h7.4C17.1,0.5,18.9,1,19.8,2.1z"/>
<path class="st1" d="M11.1,5.4c0.1-0.1,0.3-0.1,0.4-0.1h5.8c0.7,0,1.3,0,1.9,0.1c0.2,0,0.3,0.1,0.5,0.1c0.2,0.1,0.5,0.1,0.7,0.2
	c0.3,0.1,0.6,0.2,0.8,0.3c0.3-1.9,0-3.1-1-4.3C19.1,0.5,17.1,0,14.5,0H7.1c-0.5,0-1,0.4-1.1,0.9L3,20.5c-0.1,0.4,0.2,0.7,0.6,0.7
	h4.6l2.4-15.2c0-0.1,0.1-0.3,0.2-0.4C10.8,5.6,11,5.5,11.1,5.4z"/>
<path class="st2" d="M21.1,6.5c-1,5-4.3,6.8-8.6,6.8h-2.2c-0.5,0-1,0.4-1,0.9l-1.4,9.1c-0.1,0.3,0.2,0.6,0.6,0.6h3.9
	c0.2,0,0.4-0.1,0.6-0.2c0.2-0.1,0.3-0.3,0.3-0.6l0-0.2l0.7-4.6l0-0.3c0-0.2,0.1-0.4,0.3-0.6c0.2-0.1,0.4-0.2,0.6-0.2h0.6
	c3.7,0,6.7-1.5,7.5-5.9c0.4-1.8,0.2-3.4-0.8-4.5c-0.3-0.3-0.6-0.6-1.1-0.8C21.2,6.2,21.2,6.4,21.1,6.5z"/>
<path class="st3" d="M20.2,5.7c-0.2,0-0.3-0.1-0.5-0.1c-0.2,0-0.3-0.1-0.5-0.1c-0.6-0.1-1.2-0.1-1.9-0.1h-5.8c-0.1,0-0.3,0-0.4,0.1
	c-0.1,0.1-0.3,0.2-0.3,0.3c-0.1,0.1-0.1,0.3-0.2,0.4L9.3,14l0,0.2c0.1-0.5,0.5-0.9,1-0.9h2.2c4.3,0,7.6-1.7,8.6-6.8
	c0-0.1,0.1-0.3,0.1-0.4c-0.2-0.1-0.5-0.2-0.8-0.3C20.3,5.7,20.3,5.7,20.2,5.7"/>
</svg>
