<?xml version="1.0" encoding="utf-8"?>
<!-- Generator: Adobe Illustrator 27.9.0, SVG Export Plug-In . SVG Version: 6.00 Build 0)  -->
<svg xmlns:xlink="http://www.w3.org/1999/xlink" version="1.1" id="Layer_1" xmlns="http://www.w3.org/2000/svg" x="0px" y="0px"
	 viewBox="0 0 25 24" style="enable-background:new 0 0 25 24;" xml:space="preserve">
<style type="text/css">
	.st0{clip-path:url(#SVGID_00000170983117816286347410000007089140667764334774_);}
	.st1{fill:currentColor;}
</style>
<g>
	<defs>
		<rect id="SVGID_1_" x="1" y="0" width="24" height="24"/>
	</defs>
	<clipPath id="SVGID_00000164494291547429402480000015228861603087644857_">
		<use xlink:href="#SVGID_1_"  style="overflow:visible;"/>
	</clipPath>
	<g style="clip-path:url(#SVGID_00000164494291547429402480000015228861603087644857_);">
		<path class="st1" d="M24.6,6c0.1-0.1,0.2-0.3,0.3-0.4C24.9,5.4,25,5.2,25,5c0-0.2,0-0.3-0.1-0.5c-0.1-0.2-0.2-0.3-0.3-0.4
			l-3.7-3.7c-0.1-0.1-0.3-0.2-0.4-0.3C20.3,0,20.1,0,19.9,0c-0.2,0-0.3,0-0.5,0.1c-0.2,0.1-0.3,0.2-0.4,0.3l-5.9,5.9L8,1.2
			c-1-1-2.7-1-3.7,0L1.8,3.7c-1,1-1,2.7,0,3.7l5.1,5.1L1,18.4V24h5.6l5.9-5.9l5.1,5.1c1.2,1.2,2.9,0.8,3.7,0l2.5-2.5
			c1-1,1-2.7,0-3.7l-5.1-5.1L24.6,6z M3.6,5.5L6.1,3l1.7,1.7L6.2,6.3l1.9,1.9l1.6-1.6l1.6,1.6l-2.5,2.5L3.6,5.5z M18.4,15.3
			l-1.6,1.6l1.9,1.9l1.6-1.6l1.7,1.7l-2.5,2.5l-5.1-5.1l2.5-2.5L18.4,15.3z M5.4,21.4H3.6v-1.9L16.2,6.9l1.7,1.7l0.1,0.1L5.4,21.4z
			 M18.1,5l1.9-1.9L21.8,5l-1.9,1.9L18.1,5z"/>
	</g>
</g>
</svg>
