<?xml version="1.0" encoding="utf-8"?>
<!-- Generator: Adobe Illustrator 27.9.0, SVG Export Plug-In . SVG Version: 6.00 Build 0)  -->
<svg xmlns:xlink="http://www.w3.org/1999/xlink" version="1.1" id="Layer_1" xmlns="http://www.w3.org/2000/svg" x="0px" y="0px"
	 viewBox="0 0 25 24" style="enable-background:new 0 0 25 24;" xml:space="preserve">
<style type="text/css">
	.st0{clip-path:url(#SVGID_00000088814120922956841800000003787281487402057150_);}
	.st1{fill:currentColor;}
</style>
<g>
	<defs>
		<rect id="SVGID_1_" x="1" y="0" width="24" height="24"/>
	</defs>
	<clipPath id="SVGID_00000030470539638174774250000008725918701179488150_">
		<use xlink:href="#SVGID_1_"  style="overflow:visible;"/>
	</clipPath>
	<g style="clip-path:url(#SVGID_00000030470539638174774250000008725918701179488150_);">
		<path class="st1" d="M13,0c1.6,0,3.1,0.5,4.4,1.4c1.3,0.9,2.2,2.1,2.7,3.5c0.5,1.4,0.4,2.9-0.1,4.3c-0.5,1.4-1.5,2.6-2.8,3.4
			c2.3,0.8,4.2,2.2,5.6,4c1.4,1.8,2.2,4,2.3,6.3c0,0.1,0,0.3-0.1,0.4c0,0.1-0.1,0.2-0.2,0.3s-0.2,0.2-0.3,0.2
			C24.2,23.9,24.1,24,24,24c-0.1,0-0.3,0-0.4-0.1c-0.1,0-0.2-0.1-0.3-0.2s-0.2-0.2-0.2-0.3C23,23.3,23,23.2,23,23
			c-0.1-2.5-1.2-4.8-3-6.5c-1.9-1.7-4.4-2.7-7-2.7s-5.1,1-7,2.7c-1.9,1.7-3,4-3,6.5c0,0.3-0.1,0.5-0.3,0.7C2.4,23.9,2.2,24,1.9,24
			c-0.3,0-0.5-0.1-0.7-0.3S0.9,23.2,1,23c0.1-2.3,0.9-4.5,2.3-6.3c1.4-1.8,3.4-3.2,5.6-4c-1.3-0.8-2.3-2-2.8-3.4
			C5.5,7.8,5.5,6.3,5.9,4.9c0.5-1.4,1.4-2.7,2.7-3.5C9.9,0.5,11.4,0,13,0z M7.6,7c0,1.3,0.6,2.6,1.6,3.6c1,0.9,2.4,1.5,3.8,1.5
			s2.8-0.5,3.8-1.5c1-0.9,1.6-2.2,1.6-3.6c0-1.3-0.6-2.6-1.6-3.6c-1-0.9-2.4-1.5-3.8-1.5s-2.8,0.5-3.8,1.5C8.2,4.3,7.6,5.6,7.6,7z"
			/>
	</g>
</g>
</svg>
