<?xml version="1.0" encoding="utf-8"?>
<!-- Generator: Adobe Illustrator 27.9.0, SVG Export Plug-In . SVG Version: 6.00 Build 0)  -->
<svg xmlns:xlink="http://www.w3.org/1999/xlink" version="1.1" id="Layer_1" xmlns="http://www.w3.org/2000/svg" x="0px" y="0px"
	 viewBox="0 0 25 24" style="enable-background:new 0 0 25 24;" xml:space="preserve">
<style type="text/css">
	.st0{clip-path:url(#SVGID_00000147925849806967600620000017358846626002326416_);}
	.st1{fill:currentColor;}
</style>
<g>
	<defs>
		<rect id="SVGID_1_" x="0.8" y="0" width="24" height="24"/>
	</defs>
	<clipPath id="SVGID_00000100377472305708151240000012158170724662074045_">
		<use xlink:href="#SVGID_1_"  style="overflow:visible;"/>
	</clipPath>
	<g style="clip-path:url(#SVGID_00000100377472305708151240000012158170724662074045_);">
		<path class="st1" d="M14.2,18c0,0.3-0.1,0.5-0.2,0.8c-0.2,0.2-0.4,0.4-0.6,0.5c-0.3,0.1-0.5,0.1-0.8,0.1c-0.3-0.1-0.5-0.2-0.7-0.4
			c-0.2-0.2-0.3-0.4-0.4-0.7c-0.1-0.3,0-0.5,0.1-0.8c0.1-0.3,0.3-0.5,0.5-0.6c0.2-0.2,0.5-0.2,0.8-0.2c0.4,0,0.7,0.1,1,0.4
			C14,17.3,14.2,17.6,14.2,18z M12.8,5.5c-2.5,0-4.6,1.9-4.6,4.2v0.5c0,0.2,0.1,0.5,0.3,0.7c0.2,0.2,0.4,0.3,0.7,0.3
			c0.2,0,0.5-0.1,0.7-0.3c0.2-0.2,0.3-0.4,0.3-0.7V9.7c0-1.3,1.2-2.3,2.8-2.3c1.5,0,2.8,1,2.8,2.3c0,1.3-1.2,2.3-2.8,2.3
			c-0.2,0-0.5,0.1-0.7,0.3c-0.2,0.2-0.3,0.4-0.3,0.7v0.9c0,0.2,0.1,0.5,0.3,0.7c0.2,0.2,0.4,0.3,0.7,0.3c0.2,0,0.5-0.1,0.7-0.3
			c0.2-0.2,0.3-0.4,0.3-0.7v-0.1c2.1-0.4,3.7-2.1,3.7-4.1C17.4,7.4,15.3,5.5,12.8,5.5z M24.8,12c0,2.4-0.7,4.7-2,6.7
			s-3.2,3.5-5.4,4.4c-2.2,0.9-4.6,1.1-6.9,0.7c-2.3-0.5-4.5-1.6-6.1-3.3c-1.7-1.7-2.8-3.8-3.3-6.1C0.6,12,0.8,9.6,1.7,7.4
			C2.6,5.2,4.2,3.3,6.1,2c2-1.3,4.3-2,6.7-2C16,0,19,1.3,21.3,3.5S24.8,8.8,24.8,12z M23,12c0-2-0.6-4-1.7-5.6
			c-1.1-1.7-2.7-3-4.6-3.7c-1.9-0.8-3.9-1-5.9-0.6C8.8,2.4,7,3.4,5.6,4.8S3.2,8,2.8,10c-0.4,2-0.2,4,0.6,5.9s2.1,3.4,3.7,4.6
			s3.6,1.7,5.6,1.7c2.7,0,5.3-1.1,7.2-3C21.9,17.3,23,14.7,23,12z"/>
	</g>
</g>
</svg>
