<?xml version="1.0" encoding="utf-8"?>
<!-- Generator: Adobe Illustrator 27.9.0, SVG Export Plug-In . SVG Version: 6.00 Build 0)  -->
<svg xmlns:xlink="http://www.w3.org/1999/xlink" version="1.1" id="Layer_1" xmlns="http://www.w3.org/2000/svg" x="0px" y="0px"
	 viewBox="0 0 24 24" style="enable-background:new 0 0 24 24;" xml:space="preserve">
<style type="text/css">
	.st0{fill:none;stroke:currentColor;stroke-width:2;stroke-linecap:round;stroke-linejoin:round;}
</style>
<path class="st0" d="M1,4v6h6"/>
<path class="st0" d="M23,20v-6h-6"/>
<path class="st0" d="M20.5,9C20,7.6,19.1,6.3,18,5.3c-1.1-1-2.5-1.7-4-2.1c-1.5-0.3-3-0.3-4.5,0.1C8,3.8,6.7,4.6,5.6,5.6L1,10
	 M23,14l-4.6,4.4c-1.1,1.1-2.4,1.9-3.9,2.3c-1.5,0.4-3,0.5-4.5,0.1c-1.5-0.3-2.9-1-4-2.1c-1.1-1-2-2.3-2.5-3.7"/>
</svg>
