<?xml version="1.0" encoding="utf-8"?>
<!-- Generator: Adobe Illustrator 27.9.0, SVG Export Plug-In . SVG Version: 6.00 Build 0)  -->
<svg xmlns:xlink="http://www.w3.org/1999/xlink" version="1.1" id="Layer_1" xmlns="http://www.w3.org/2000/svg" x="0px" y="0px"
	 viewBox="0 0 25 24" style="enable-background:new 0 0 25 24;" xml:space="preserve">
<style type="text/css">
	.st0{clip-path:url(#SVGID_00000029751635199262752810000008020783511361360298_);}
	.st1{fill:none;stroke:currentColor;stroke-width:2;stroke-linecap:round;stroke-linejoin:round;}
</style>
<g>
	<defs>
		<rect id="SVGID_1_" x="1" y="0" width="24" height="24"/>
	</defs>
	<clipPath id="SVGID_00000156560365070562963020000005662582091502145928_">
		<use xlink:href="#SVGID_1_"  style="overflow:visible;"/>
	</clipPath>
	<g style="clip-path:url(#SVGID_00000156560365070562963020000005662582091502145928_);">
		<path class="st1" d="M24,4v6h-6"/>
		<path class="st1" d="M21.4,15c-0.7,1.8-1.9,3.4-3.5,4.5c-1.6,1.1-3.6,1.6-5.5,1.5c-1.9-0.1-3.8-0.9-5.3-2.1c-1.5-1.3-2.5-3-3-4.9
			c-0.4-1.9-0.2-3.9,0.6-5.7c0.8-1.8,2.2-3.3,3.9-4.2c1.7-0.9,3.7-1.3,5.6-1c1.9,0.3,3.7,1.2,5.1,2.5L24,10"/>
	</g>
</g>
</svg>
