<?xml version="1.0" encoding="utf-8"?>
<!-- Generator: Adobe Illustrator 27.9.0, SVG Export Plug-In . SVG Version: 6.00 Build 0)  -->
<svg xmlns:xlink="http://www.w3.org/1999/xlink" version="1.1" id="Layer_1" xmlns="http://www.w3.org/2000/svg" x="0px" y="0px"
	 viewBox="0 0 25 24" style="enable-background:new 0 0 25 24;" xml:space="preserve">
<style type="text/css">
	.st0{clip-path:url(#SVGID_00000023273471743377251920000004415124864190951588_);}
	.st1{fill:none;stroke:currentColor;stroke-width:2;stroke-linecap:round;stroke-linejoin:round;}
</style>
<g>
	<defs>
		<rect id="SVGID_1_" x="1" y="0" width="24" height="24"/>
	</defs>
	<clipPath id="SVGID_00000064326014699627149280000018066035738242022845_">
		<use xlink:href="#SVGID_1_"  style="overflow:visible;"/>
	</clipPath>
	<g style="clip-path:url(#SVGID_00000064326014699627149280000018066035738242022845_);">
		<path class="st1" d="M13,15c1.7,0,3-1.3,3-3s-1.3-3-3-3c-1.7,0-3,1.3-3,3S11.3,15,13,15z"/>
		<path class="st1" d="M20.4,15c-0.1,0.3-0.2,0.6-0.1,1c0.1,0.3,0.2,0.6,0.4,0.9l0.1,0.1c0.2,0.2,0.3,0.4,0.4,0.6
			c0.1,0.2,0.2,0.5,0.2,0.8s-0.1,0.5-0.2,0.8c-0.1,0.2-0.2,0.5-0.4,0.6c-0.2,0.2-0.4,0.3-0.6,0.4c-0.2,0.1-0.5,0.2-0.8,0.2
			c-0.3,0-0.5-0.1-0.8-0.2c-0.2-0.1-0.5-0.2-0.6-0.4l-0.1-0.1c-0.2-0.2-0.5-0.4-0.9-0.4c-0.3-0.1-0.7,0-1,0.1
			c-0.3,0.1-0.5,0.3-0.7,0.6c-0.2,0.3-0.3,0.6-0.3,0.9V21c0,0.5-0.2,1-0.6,1.4C14.1,22.8,13.6,23,13,23c-0.5,0-1-0.2-1.4-0.6
			C11.2,22,11,21.5,11,21v-0.1c0-0.3-0.1-0.7-0.3-0.9c-0.2-0.3-0.5-0.5-0.8-0.6c-0.3-0.1-0.6-0.2-1-0.1c-0.3,0.1-0.6,0.2-0.9,0.4
			l-0.1,0.1c-0.2,0.2-0.4,0.3-0.6,0.4c-0.2,0.1-0.5,0.2-0.8,0.2c-0.3,0-0.5-0.1-0.8-0.2c-0.2-0.1-0.5-0.2-0.6-0.4
			c-0.2-0.2-0.3-0.4-0.4-0.6s-0.2-0.5-0.2-0.8s0.1-0.5,0.2-0.8s0.2-0.5,0.4-0.6l0.1-0.1c0.2-0.2,0.4-0.5,0.4-0.9
			c0.1-0.3,0-0.7-0.1-1c-0.1-0.3-0.3-0.5-0.6-0.7c-0.3-0.2-0.6-0.3-0.9-0.3H4c-0.5,0-1-0.2-1.4-0.6C2.2,13.1,2,12.6,2,12.1
			s0.2-1,0.6-1.4c0.4-0.4,0.9-0.6,1.4-0.6H4c0.3,0,0.7-0.1,0.9-0.3C5.2,9.6,5.4,9.3,5.6,9c0.1-0.3,0.2-0.6,0.1-1
			C5.6,7.7,5.5,7.4,5.2,7.2L5.2,7.1C5,6.9,4.8,6.7,4.7,6.5C4.6,6.2,4.6,6,4.6,5.7c0-0.3,0.1-0.5,0.2-0.8C4.8,4.7,5,4.5,5.2,4.3
			C5.3,4.1,5.6,4,5.8,3.9c0.2-0.1,0.5-0.2,0.8-0.2c0.3,0,0.5,0.1,0.8,0.2C7.6,4,7.8,4.1,8,4.3l0.1,0.1c0.2,0.2,0.5,0.4,0.9,0.4
			c0.3,0.1,0.7,0,1-0.1H10c0.3-0.1,0.5-0.3,0.7-0.6C10.9,3.8,11,3.5,11,3.2V3c0-0.5,0.2-1,0.6-1.4C11.9,1.2,12.4,1,13,1
			c0.5,0,1,0.2,1.4,0.6C14.7,2,15,2.5,15,3v0.1c0,0.3,0.1,0.6,0.3,0.9c0.2,0.3,0.4,0.5,0.7,0.6c0.3,0.1,0.6,0.2,1,0.1
			c0.3-0.1,0.6-0.2,0.9-0.4l0.1-0.1C18,4,18.2,3.9,18.5,3.8c0.2-0.1,0.5-0.2,0.8-0.2c0.3,0,0.5,0.1,0.8,0.2c0.2,0.1,0.5,0.2,0.6,0.4
			c0.2,0.2,0.3,0.4,0.4,0.6c0.1,0.2,0.2,0.5,0.2,0.8s-0.1,0.5-0.2,0.8C21,6.6,20.8,6.9,20.7,7l-0.1,0.1c-0.2,0.2-0.4,0.5-0.4,0.9
			c-0.1,0.3,0,0.7,0.1,1V9c0.1,0.3,0.3,0.5,0.6,0.7c0.3,0.2,0.6,0.3,0.9,0.3H22c0.5,0,1,0.2,1.4,0.6C23.7,11,24,11.5,24,12
			s-0.2,1-0.6,1.4C23,13.8,22.5,14,22,14h-0.1c-0.3,0-0.6,0.1-0.9,0.3C20.7,14.5,20.5,14.7,20.4,15z"/>
	</g>
</g>
</svg>
