<svg width="29" height="27" viewBox="0 0 29 27" fill="none" xmlns="http://www.w3.org/2000/svg">
<path d="M22.146 26.2996C21.9486 26.3004 21.7561 26.2387 21.5958 26.1235L14.06 20.6501L6.52429 26.1235C6.3633 26.2405 6.16934 26.3031 5.97045 26.3024C5.77157 26.3017 5.57807 26.2376 5.41793 26.1195C5.25778 26.0013 5.1393 25.8352 5.0796 25.6451C5.01989 25.4551 5.02207 25.2509 5.08582 25.0621L8.02488 16.3407L0.407693 11.1074C0.242699 10.9942 0.118172 10.831 0.0523048 10.6419C-0.0135622 10.4527 -0.0173167 10.2474 0.04159 10.0559C0.100497 9.8644 0.218977 9.69682 0.379721 9.57761C0.540464 9.4584 0.735046 9.39382 0.935037 9.39329H10.3323L13.1682 0.649558C13.2293 0.460784 13.3485 0.296247 13.5088 0.179552C13.669 0.0628565 13.862 0 14.06 0C14.2581 0 14.4511 0.0628565 14.6113 0.179552C14.7715 0.296247 14.8907 0.460784 14.9518 0.649558L17.7878 9.39622H27.185C27.3853 9.39613 27.5803 9.46026 27.7415 9.57924C27.9027 9.69822 28.0217 9.86579 28.081 10.0574C28.1403 10.249 28.1367 10.4546 28.0709 10.6441C28.0051 10.8336 27.8805 10.997 27.7153 11.1103L20.0952 16.3407L23.0325 25.0598C23.0801 25.201 23.0935 25.3514 23.0716 25.4988C23.0496 25.6462 22.993 25.7862 22.9064 25.9073C22.8198 26.0285 22.7057 26.1272 22.5734 26.1954C22.4412 26.2636 22.2947 26.2993 22.146 26.2996Z" fill="#FBE158"/>
</svg>
