<?xml version="1.0" encoding="utf-8"?>
<!-- Generator: Adobe Illustrator 27.9.0, SVG Export Plug-In . SVG Version: 6.00 Build 0)  -->
<svg xmlns:xlink="http://www.w3.org/1999/xlink" version="1.1" id="Layer_1" xmlns="http://www.w3.org/2000/svg" x="0px" y="0px"
	 viewBox="0 0 25 24" style="enable-background:new 0 0 25 24;" xml:space="preserve">
<style type="text/css">
	.st0{clip-path:url(#SVGID_00000046311002515659185130000010437825195673664397_);}
	.st1{fill:none;stroke:currentColor;stroke-width:2;stroke-linecap:round;stroke-linejoin:round;}
</style>
<g>
	<defs>
		<rect id="SVGID_1_" x="1" y="0" width="24" height="24"/>
	</defs>
	<clipPath id="SVGID_00000078725548147308307320000004586350852485038978_">
		<use xlink:href="#SVGID_1_"  style="overflow:visible;"/>
	</clipPath>
	<g style="clip-path:url(#SVGID_00000078725548147308307320000004586350852485038978_);">
		<path class="st1" d="M22,2.5l-4.9-1.6c0,1.2-0.5,2.3-1.3,3.1s-2,1.3-3.1,1.3c-1.2,0-2.3-0.5-3.1-1.3c-0.8-0.8-1.3-2-1.3-3.1
			L3.4,2.5C2.9,2.7,2.5,3,2.2,3.5C1.9,4,1.8,4.5,1.9,5l0.6,3.8c0,0.3,0.2,0.5,0.4,0.7c0.2,0.2,0.5,0.3,0.7,0.3H6v11.1
			c0,1.2,1,2.2,2.2,2.2h8.9c0.6,0,1.2-0.2,1.6-0.6c0.4-0.4,0.6-1,0.6-1.6V9.8h2.4c0.3,0,0.5-0.1,0.7-0.3c0.2-0.2,0.3-0.4,0.4-0.7
			L23.4,5c0.1-0.5,0-1.1-0.3-1.5C22.9,3,22.5,2.7,22,2.5z"/>
	</g>
</g>
</svg>
