<?xml version="1.0" encoding="utf-8"?>
<svg xmlns:xlink="http://www.w3.org/1999/xlink" version="1.1" id="Layer_1" xmlns="http://www.w3.org/2000/svg" x="0px" y="0px"
	 viewBox="0 0 23 24" style="enable-background:new 0 0 23 24;" xml:space="preserve">
<style type="text/css">
	.st0{clip-path:url(#SVGID_00000098186829131947007430000011957939182876377531_);}
	.st1{fill:none;stroke:currentColor;stroke-width:1.5;stroke-linecap:round;}
</style>
<g>
	<defs>
		<rect id="SVGID_1_" x="0.8" y="0" width="22.2" height="24"/>
	</defs>
	<clipPath id="SVGID_00000157307309262902622960000011203005703849978256_">
		<use xlink:href="#SVGID_1_"  style="overflow:visible;"/>
	</clipPath>
	<g style="clip-path:url(#SVGID_00000157307309262902622960000011203005703849978256_);">
		<path class="st1" d="M4.8,10.1v8.8c0,1.5,0,2.2,0.5,2.8c0.5,0.6,1.1,0.7,2.3,1c1.1,0.2,2.5,0.4,4.1,0.4c1.6,0,3-0.2,4.1-0.4
			c1.2-0.2,1.8-0.3,2.3-1c0.5-0.6,0.5-1.4,0.5-2.8v-8.8c0-0.8,0-1.1,0.1-1.5c0.1-0.3,0.4-0.6,1-1.1l0.2-0.2c1.2-1.1,1.8-1.6,1.8-2.3
			c0-0.8-0.5-1.2-1.6-2.2c-0.1-0.1-0.3-0.3-0.5-0.4c-0.5-0.4-1.3-0.9-1.8-1.2C17.6,1.1,17.3,1,17,0.9c-0.3,0-0.6,0-0.9,0.1l-0.5,0.1
			c-0.4,0.1-0.8,0.4-1.1,0.8C13.2,4,10.2,4,8.9,1.9C8.7,1.5,8.3,1.3,7.8,1.1L7.3,1C7,0.9,6.7,0.9,6.4,0.9C6.1,1,5.8,1.1,5.6,1.2
			C5,1.6,4.3,2,3.7,2.4C3.6,2.6,3.4,2.7,3.3,2.8c-1,1-1.6,1.4-1.6,2.2c0,0.8,0.6,1.3,1.8,2.3l0.2,0.2c0.5,0.5,0.8,0.7,1,1.1
			C4.8,9,4.8,9.4,4.8,10.1z"/>
	</g>
</g>
</svg>
